<svg width="25" height="25" viewBox="0 0 25 25" fill="none" xmlns="http://www.w3.org/2000/svg">
<path d="M8.08027 7.48667C7.72095 6.68345 7.06875 6.24107 6.24365 6.24107H6.09395C5.27041 6.24107 4.59482 6.69502 4.23989 7.48804L0.183887 16.6475C0.0928223 16.848 0 17.089 0 17.3564C0 18.247 0.690283 18.9445 1.57158 18.9445C2.25488 18.9445 2.83032 18.5581 3.11177 17.9087L3.82529 16.2344H8.42978L9.11099 17.8289C9.42559 18.5483 9.9897 18.9445 10.6996 18.9445C11.5996 18.9445 12.3045 18.2323 12.3045 17.3231C12.3045 17.1134 12.2511 16.8983 12.1379 16.6494L8.08027 7.48667ZM10.6996 18.1624C10.3031 18.1624 10.0179 17.9508 9.82881 17.5185L9.04741 15.6898C8.98589 15.5458 8.84438 15.4524 8.68789 15.4524H3.5668C3.41006 15.4524 3.26846 15.5459 3.20708 15.6901L2.39326 17.5999C2.23604 17.9627 1.94424 18.1624 1.57158 18.1624C1.12891 18.1624 0.78208 17.8084 0.78208 17.3564C0.78208 17.2369 0.843311 17.0869 0.896631 16.9695C0.897168 16.9683 0.897656 16.9672 0.898144 16.9661L4.95439 7.8062C5.11426 7.44902 5.44185 7.02319 6.09404 7.02319H6.24375C6.7563 7.02319 7.13403 7.28657 7.36582 7.80474L11.4244 16.9695C11.4913 17.1166 11.5224 17.229 11.5224 17.3232C11.5224 17.7937 11.1609 18.1624 10.6996 18.1624Z" fill="white"/>
<path d="M6.48771 9.58994C6.42677 9.44473 6.28463 9.35029 6.12716 9.35029C5.96969 9.35029 5.8276 9.44473 5.76662 9.58994L4.15382 13.4308C4.10309 13.5515 4.11617 13.6896 4.18868 13.7986C4.26114 13.9077 4.38336 13.9732 4.51432 13.9732H7.73996C7.87092 13.9732 7.99313 13.9077 8.0656 13.7986C8.13811 13.6896 8.15119 13.5515 8.10046 13.4308L6.48771 9.58994ZM5.1027 13.1911L6.12716 10.7513L7.15173 13.1911H5.1027Z" fill="white"/>
<path d="M19.093 14.5073C18.5781 14.2696 17.9471 14.1388 17.3164 14.1388C16.6914 14.1388 16.1866 14.2683 15.8162 14.5239C15.3998 14.8111 15.1796 15.2386 15.1796 15.7602V15.7935C15.1796 16.6737 15.8913 17.2652 16.9506 17.2652C18.3458 17.2652 19.3201 16.4617 19.3201 15.3113V14.8624C19.3201 14.7098 19.2315 14.5712 19.093 14.5073ZM18.5381 15.3112C18.5381 16.0122 17.9001 16.4831 16.9506 16.4831C16.0329 16.4831 15.9615 15.9552 15.9615 15.7934V15.7601C15.9615 15.0299 16.8103 14.9208 17.3163 14.9208C17.7449 14.9208 18.1698 14.9924 18.538 15.1246V15.3112H18.5381Z" fill="white"/>
<path d="M25 5.67959V4.89751H21.5338V5.67959H22.8759V19.3204H21.5338V20.1025H25V19.3204H23.6579V5.67959H25Z" fill="white"/>
<path d="M21.7145 13.2828H21.7144C21.7144 11.9286 21.3514 10.879 20.6356 10.1631C19.8977 9.42515 18.7921 9.05098 17.3497 9.05098C16.1928 9.05098 15.2736 9.20225 14.369 9.54145C13.8097 9.75127 13.4338 10.2927 13.4338 10.8886C13.4338 11.6858 14.0655 12.3104 14.8721 12.3104C15.0345 12.3104 15.1754 12.2856 15.3576 12.2252C15.859 12.0699 16.391 11.9945 16.9838 11.9945C17.5502 11.9945 18.2787 12.0911 18.4617 12.8415C17.9979 12.7199 17.4357 12.6257 16.7177 12.6257C15.5379 12.6257 14.5893 12.8842 13.8981 13.3941C13.1375 13.9553 12.7354 14.8079 12.7354 15.8598V15.8931C12.7354 16.8479 13.0953 17.6518 13.7763 18.218C14.3912 18.7293 15.2469 19.0108 16.1858 19.0108C17.1663 19.0108 18.0048 18.7396 18.6873 18.2033C18.9413 18.6245 19.4288 18.9443 20.0931 18.9443C21.0022 18.9443 21.7145 18.2394 21.7145 17.3395V13.2828ZM20.093 18.1624C19.6974 18.1624 19.2704 17.9115 19.2704 17.5061V17.4895C19.2704 17.3277 19.1707 17.1825 19.0196 17.1245C18.8686 17.0664 18.6974 17.1075 18.589 17.2275C17.9808 17.9015 17.1947 18.2291 16.1857 18.2291C14.2162 18.2291 13.5173 16.9708 13.5173 15.8934V15.8601C13.5173 13.7266 15.5225 13.408 16.7176 13.408C17.6352 13.408 18.2459 13.5737 18.7693 13.7527C18.8888 13.7936 19.0206 13.7743 19.1232 13.7009C19.2259 13.6275 19.2869 13.509 19.2869 13.3827V13.2331C19.2869 11.9491 18.4474 11.2126 16.9837 11.2126C16.3097 11.2126 15.7007 11.3 15.122 11.4796C15.1194 11.4804 15.1167 11.4812 15.1142 11.4821C14.9975 11.521 14.9391 11.5284 14.872 11.5284C14.5041 11.5284 14.2158 11.2474 14.2158 10.8886C14.2158 10.6168 14.3878 10.3697 14.6436 10.2737C15.4563 9.96899 16.2908 9.8331 17.3496 9.8331C18.5771 9.8331 19.4966 10.1302 20.0825 10.7162C20.6464 11.28 20.9323 12.1436 20.9323 13.2829V17.3397H20.9324C20.9323 17.8011 20.5637 18.1624 20.093 18.1624Z" fill="white"/>
</svg>
