<svg width="25" height="25" viewBox="0 0 25 25" fill="none" xmlns="http://www.w3.org/2000/svg">
<g clip-path="url(#clip0_78_3009)">
<path d="M22.8774 14.9694C22.6754 14.4693 22.106 14.2279 21.6059 14.43C21.106 14.6322 20.8645 15.2014 21.0667 15.7015L22.2167 18.5465L18.8008 17.0408C18.5536 16.9317 18.2723 16.93 18.0237 17.0361C16.8563 17.5341 15.6056 17.7866 14.3067 17.7866C9.07847 17.7866 5.56647 13.6932 5.56647 9.86996C5.56647 5.50461 9.4874 1.95312 14.3067 1.95312C19.126 1.95312 23.0469 5.50461 23.0469 9.86996C23.0469 10.2104 23.0153 10.6182 22.96 10.9886C22.8804 11.5221 23.2484 12.0192 23.7816 12.0987C24.3151 12.1782 24.8122 11.8103 24.8917 11.2768C24.9615 10.8086 25.0001 10.3088 25.0001 9.86996C25.0001 7.21703 23.8766 4.72794 21.8367 2.86102C19.821 1.01604 17.1469 0 14.3067 0C11.4665 0 8.79237 1.01604 6.77668 2.86102C4.95383 4.52938 3.86359 6.69479 3.65206 9.02958C1.35924 10.548 6.11412e-05 12.981 6.11412e-05 15.6017C6.11412e-05 17.2388 0.515808 18.7923 1.49771 20.129L0.0712052 23.6574C-0.0777587 24.0259 0.0115052 24.4478 0.296845 24.7246C0.482811 24.9048 0.728096 25 0.976814 25C1.10976 25 1.24384 24.9729 1.37049 24.917L5.48331 23.1041C6.51785 23.4892 7.61153 23.6841 8.74029 23.6841C8.76471 23.6841 8.78874 23.6822 8.81258 23.6805C10.4453 23.6681 12.0326 23.2386 13.4072 22.435C14.6386 21.7152 15.6516 20.726 16.3617 19.5581C17.0548 19.4336 17.7325 19.2455 18.3903 18.9941L23.6296 21.3037C23.7563 21.3596 23.8902 21.3867 24.0233 21.3867C24.272 21.3867 24.5171 21.2915 24.7031 21.1113C24.9886 20.8345 25.0777 20.4126 24.9287 20.0441L22.8774 14.9694ZM8.74029 21.7285C8.72694 21.7285 8.71397 21.7299 8.70081 21.7304C7.70365 21.7255 6.74387 21.5294 5.84742 21.147C5.59889 21.0409 5.31756 21.0426 5.07037 21.1515L2.78345 22.1598L3.52122 20.3348C3.65759 19.9974 3.59503 19.6123 3.3589 19.3352C2.43937 18.2564 1.95319 16.9653 1.95319 15.6017C1.95319 14.0411 2.6097 12.5626 3.7583 11.4414C4.11593 13.3907 5.12492 15.2555 6.64717 16.7206C8.54117 18.5434 11.0467 19.5995 13.7519 19.7268C12.4817 20.9768 10.6642 21.7285 8.74029 21.7285ZM15.7227 10.791C16.2621 10.791 16.6993 11.2282 16.6993 11.7676C16.6993 12.307 16.2621 12.7441 15.7227 12.7441H9.86334C9.32394 12.7441 8.88678 12.307 8.88678 11.7676C8.88678 11.2282 9.32394 10.791 9.86334 10.791H15.7227ZM18.6524 8.83789H9.86334C9.32394 8.83789 8.88678 8.40073 8.88678 7.86133C8.88678 7.32193 9.32394 6.88477 9.86334 6.88477H18.6524C19.1918 6.88477 19.629 7.32193 19.629 7.86133C19.629 8.40073 19.1918 8.83789 18.6524 8.83789Z" fill="#08173D"/>
</g>
<defs>
<clipPath id="clip0_78_3009">
<rect width="25" height="25" fill="white"/>
</clipPath>
</defs>
</svg>
