<svg width="25" height="25" viewBox="0 0 25 25" fill="none" xmlns="http://www.w3.org/2000/svg">
<g clip-path="url(#clip0_6_96)">
<path d="M21.9552 0H3.04478C1.36587 0 0 1.36587 0 3.04478V21.9552C0 23.6341 1.36587 25 3.04478 25H12.7373C13.145 25 13.4755 24.6695 13.4755 24.2618V15.3111C13.4755 14.9035 13.145 14.5729 12.7373 14.5729H10.0839V12.4717H12.7373C13.145 12.4717 13.4755 12.1412 13.4755 11.7335V8.74565C13.4755 7.12866 14.791 5.81313 16.4081 5.81313H18.9683V7.91436H16.4081C15.9497 7.91436 15.5768 8.28735 15.5768 8.7457V11.7336C15.5768 12.1413 15.9073 12.4718 16.3149 12.4718H18.9683V14.573H16.3149C15.9073 14.573 15.5768 14.9035 15.5768 15.3112V24.2619C15.5768 24.6695 15.9073 25 16.3149 25H21.9552C23.6341 25 25 23.6341 25 21.9552V3.04478C25 1.36587 23.6341 0 21.9552 0ZM23.5236 21.9552C23.5236 22.8201 22.8201 23.5237 21.9552 23.5237H17.0531H17.053V16.0493H19.7064C20.1141 16.0493 20.4446 15.7188 20.4446 15.3111V11.7336C20.4446 11.3259 20.1141 10.9954 19.7064 10.9954H17.053V9.39072H19.7064C20.1141 9.39072 20.4446 9.0602 20.4446 8.65254V5.075C20.4446 4.66733 20.1141 4.33682 19.7064 4.33682H16.408C13.977 4.33682 11.9991 6.31465 11.9991 8.7457V10.9954H9.34575C8.93809 10.9954 8.60757 11.3259 8.60757 11.7336V15.3111C8.60757 15.7188 8.93809 16.0493 9.34575 16.0493H11.9991V23.5236H3.04478C2.17993 23.5236 1.47632 22.8201 1.47632 21.9552V3.04478C1.47632 2.17993 2.17988 1.47632 3.04478 1.47632H21.9552C22.82 1.47632 23.5236 2.17988 23.5236 3.04478V21.9552Z" fill="white"/>
</g>
<defs>
<clipPath id="clip0_6_96">
<rect width="25" height="25" fill="white"/>
</clipPath>
</defs>
</svg>
