<svg width="25" height="25" viewBox="0 0 25 25" fill="none" xmlns="http://www.w3.org/2000/svg">
<path d="M18.1466 0H6.85337C3.07441 0 0 3.07441 0 6.85342V18.1466C0 21.9256 3.07441 25 6.85337 25H18.1466C21.9256 25 25 21.9256 25 18.1466V6.85342C25 3.07441 21.9256 0 18.1466 0ZM23.5236 18.1466C23.5236 21.1115 21.1116 23.5236 18.1466 23.5236H6.85337C3.88848 23.5236 1.47637 21.1116 1.47637 18.1466V6.85342C1.47637 3.88848 3.88848 1.47637 6.85337 1.47637H18.1466C21.1116 1.47637 23.5236 3.88848 23.5236 6.85342V18.1466Z" fill="white"/>
<path d="M12.5 5.64307C8.71909 5.64307 5.64307 8.71909 5.64307 12.5C5.64307 16.281 8.71904 19.357 12.5 19.357C16.281 19.357 19.3571 16.281 19.3571 12.5C19.3571 8.71904 16.281 5.64307 12.5 5.64307ZM12.5 17.8807C9.53315 17.8807 7.11938 15.4669 7.11938 12.5C7.11938 9.5331 9.53315 7.11934 12.5 7.11934C15.467 7.11934 17.8808 9.53315 17.8808 12.5C17.8808 15.4669 15.467 17.8807 12.5 17.8807Z" fill="white"/>
<path d="M19.7671 3.14956C18.6184 3.14956 17.6838 4.08418 17.6838 5.23291C17.6838 6.38164 18.6184 7.31621 19.7671 7.31621C20.9159 7.31621 21.8504 6.38159 21.8504 5.23286C21.8504 4.08413 20.9159 3.14956 19.7671 3.14956ZM19.7671 5.83979C19.4325 5.83979 19.1602 5.56753 19.1602 5.23286C19.1602 4.89819 19.4325 4.62593 19.7671 4.62593C20.1018 4.62593 20.3741 4.89824 20.3741 5.23286C20.3741 5.56748 20.1018 5.83979 19.7671 5.83979Z" fill="white"/>
</svg>
