<svg width="25" height="25" viewBox="0 0 25 25" fill="none" xmlns="http://www.w3.org/2000/svg">
<g clip-path="url(#clip0_132_463)">
<path d="M24.6459 14.7803C24.3493 14.5477 23.9412 14.5184 23.6143 14.7063C22.0643 15.5972 20.4261 16.049 18.7451 16.049C13.3438 16.049 8.94966 11.6546 8.94966 6.2532C8.94966 4.56478 9.40207 2.92876 10.2944 1.39077C10.484 1.06425 10.4558 0.655247 10.2234 0.357587C9.9911 0.059927 9.60108 -0.066708 9.23831 0.0381019C6.62904 0.790267 4.28056 2.38609 2.62555 4.53149C0.9079 6.75826 0 9.42512 0 12.2439C0 19.2766 5.72139 24.9984 12.754 24.9984C15.5728 24.9984 18.2403 24.0909 20.4681 22.3737C22.615 20.7191 24.2116 18.3719 24.9637 15.7645C25.0683 15.4022 24.9425 15.013 24.6459 14.7803ZM12.754 23.1487C6.74125 23.1487 1.84959 18.2568 1.84959 12.2439C1.84959 8.18738 4.17082 4.49585 7.69872 2.64059C7.30069 3.81015 7.10007 5.01842 7.10007 6.2532C7.10007 12.6745 12.324 17.8986 18.7451 17.8986C19.9781 17.8986 21.1885 17.6971 22.3637 17.2977C20.5087 20.8263 16.814 23.1487 12.754 23.1487Z" fill="white"/>
</g>
<defs>
<clipPath id="clip0_132_463">
<rect width="25" height="25" fill="white"/>
</clipPath>
</defs>
</svg>
