<svg width="25" height="25" viewBox="0 0 25 25" fill="none" xmlns="http://www.w3.org/2000/svg">
<path d="M21.5297 10.3598C21.4043 10.0734 21.1212 9.88846 20.8085 9.88846H14.2647L17.4167 1.05207C17.5424 0.699629 17.4027 0.307294 17.0825 0.1137C16.762 -0.0800004 16.3498 -0.021418 16.0961 0.253646L3.6127 13.7905C3.40073 14.0203 3.34488 14.3538 3.47044 14.6403C3.5958 14.9267 3.87895 15.1116 4.19159 15.1116H8.44575C8.88071 15.1116 9.23315 14.7591 9.23315 14.3242C9.23315 13.8894 8.88071 13.5368 8.44575 13.5368H5.98875L14.636 4.15998L12.406 10.4112C12.3202 10.6523 12.3607 10.9203 12.5083 11.1295C12.6558 11.3387 12.8999 11.4632 13.156 11.4632H19.0113L10.3653 20.839L12.5955 14.5888C12.6816 14.3477 12.6451 14.0797 12.4975 13.8705C12.3499 13.6613 12.11 13.5367 11.8539 13.5367H11.8462C11.4761 13.5367 11.1685 13.7921 11.085 14.1361L7.58392 23.9477C7.45814 24.3002 7.59788 24.6925 7.91809 24.8861C8.0446 24.9626 8.18549 24.9998 8.32523 24.9998C8.53929 24.9998 8.75095 24.9125 8.90444 24.7461L21.3872 11.2094C21.5993 10.9797 21.6551 10.6463 21.5297 10.3598Z" fill="white"/>
</svg>
