<svg width="25" height="25" viewBox="0 0 25 25" fill="none" xmlns="http://www.w3.org/2000/svg">
<path d="M12.4817 1.02309C11.9056 1.0349 11.4471 1.50898 11.4584 2.08508V5.20604C11.4584 6.59628 13.5438 6.59628 13.5438 5.20604V2.08508C13.5554 1.49382 13.073 1.01148 12.4817 1.02309ZM19.7632 4.00781C19.4922 4.01962 19.236 4.13452 19.0491 4.33137L16.8559 6.56119C15.8821 7.55674 17.3754 9.0175 18.3493 8.02195L20.5323 5.79213C21.2112 5.12528 20.7142 3.97226 19.7632 4.00793V4.00781ZM5.0375 4.15427C4.10028 4.16214 3.65067 5.30863 4.33152 5.95276L6.56134 8.13573C7.54986 9.194 9.09529 7.62495 8.02211 6.65263L5.7923 4.46149C5.59285 4.2607 5.32037 4.15006 5.0375 4.15439V4.15427ZM12.496 7.69022C9.85058 7.69022 7.69049 9.85035 7.69049 12.4958C7.69049 15.1412 9.85058 17.3094 12.496 17.3094C15.1414 17.3094 17.3096 15.1412 17.3096 12.4958C17.3096 9.85035 15.1414 7.69022 12.496 7.69022V7.69022ZM12.496 9.77551C14.0155 9.77551 15.2263 10.9763 15.2263 12.4958C15.2263 14.0153 14.0155 15.226 12.496 15.226C10.9765 15.226 9.77586 14.0153 9.77586 12.4958C9.77586 10.9763 10.9765 9.77551 12.496 9.77551ZM2.08543 13.5435H5.20636C6.5966 13.5435 6.5966 11.4582 5.20636 11.4582H2.03151C0.585571 11.4582 0.695186 13.6154 2.08543 13.5435ZM19.7938 13.5435H22.9167C24.307 13.5435 24.307 11.4582 22.9167 11.4582H19.7398C18.2939 11.4582 18.4035 13.6154 19.7938 13.5435H19.7938ZM17.688 16.5485C16.7474 16.5524 16.2949 17.7045 16.98 18.349L19.2099 20.532C20.1984 21.5902 21.7438 20.0212 20.6706 19.0489L18.4327 16.8556C18.2357 16.6576 17.9674 16.547 17.688 16.5486V16.5485ZM7.36904 16.6563C7.09725 16.6681 6.84023 16.7827 6.65289 16.9799L4.46173 19.2098C3.44448 20.2042 4.97986 21.7081 5.95302 20.6705L8.13605 18.4325C8.79944 17.7657 8.30929 16.6308 7.36904 16.6565V16.6563ZM12.4817 18.7335C11.9064 18.7453 11.4483 19.2183 11.4584 19.7936V22.9165C11.4584 24.3067 13.5438 24.3067 13.5438 22.9165V19.7936C13.5542 19.2031 13.0722 18.7219 12.4817 18.7335Z" fill="white"/>
</svg>
